<?xml version="1.0" standalone="no"?>
<!DOCTYPE svg PUBLIC "-//W3C//DTD SVG 20010904//EN"
 "http://www.w3.org/TR/2001/REC-SVG-20010904/DTD/svg10.dtd">
<svg version="1.0" xmlns="http://www.w3.org/2000/svg"
 width="512.000000pt" height="512.000000pt" viewBox="0 0 512.000000 512.000000"
 preserveAspectRatio="xMidYMid meet">

<g transform="translate(0.000000,512.000000) scale(0.100000,-0.100000)"
fill="#000000" stroke="none">
<path d="M1982 4290 c-427 -31 -836 -142 -1219 -331 l-183 -90 0 -1498 0
-1499 108 54 c389 196 886 326 1336 350 l126 7 0 154 0 155 -112 -7 c-364 -21
-683 -81 -1014 -189 l-134 -44 0 1164 0 1164 58 29 c148 74 416 166 622 211
341 76 738 89 1043 35 45 -8 99 -18 120 -21 l37 -7 0 151 0 150 -67 16 c-181
41 -507 62 -721 46z"/>
<path d="M4499 4006 c-590 -287 -1307 -397 -1907 -295 -63 10 -118 19 -123 19
-5 0 -9 -607 -9 -1475 l0 -1474 38 -10 c399 -105 980 -72 1502 86 196 58 633
253 646 287 2 6 3 668 2 1472 l-3 1460 -146 -70z m-149 -1517 l0 -1160 -102
-49 c-254 -119 -607 -214 -923 -250 -101 -11 -400 -13 -494 -4 l-61 7 0 1196
0 1196 288 0 c218 1 318 5 417 19 257 35 508 92 730 165 66 21 126 39 133 40
9 1 12 -237 12 -1160z"/>
</g>
</svg>
