<svg id="Layer_1" data-name="Layer 1" xmlns="http://www.w3.org/2000/svg" viewBox="0 0 27 18"><defs><style>.cls-1{fill:#fff;}</style></defs><path class="cls-1" d="M11.93,1.69H12l.41,0A12.11,12.11,0,0,1,14.26,2V.51a11.38,11.38,0,0,0-1.91-.3l-.77,0h-.22A16.1,16.1,0,0,0,3.48,2.3V17a16.21,16.21,0,0,1,3.87-1.5A17.4,17.4,0,0,1,10.6,15h.59V13.51A17.59,17.59,0,0,0,7,14.07c-.51.13-1,.27-1.47.43L5,14.68V3.2l.22-.11a14.64,14.64,0,0,1,2.7-1,14.3,14.3,0,0,1,2.77-.42h.05l.63,0h.57Z"/><path class="cls-1" d="M15.64,3.25c-.34,0-.69,0-1,0a11.19,11.19,0,0,1-1.18-.14l-.69-.14V17.49a11.93,11.93,0,0,0,2.89.34,15.89,15.89,0,0,0,3.82-.49,15.91,15.91,0,0,0,4.06-1.64V1.24a16.74,16.74,0,0,1-3.86,1.5A16.53,16.53,0,0,1,15.64,3.25Zm5.85.25L22,3.32V14.8l-.22.11a14.64,14.64,0,0,1-2.7,1,14.25,14.25,0,0,1-3.45.44c-.34,0-.69,0-1,0l-.36,0V14.85h0V4.44l.42,0q.45,0,1,0A17.9,17.9,0,0,0,20,3.93C20.52,3.81,21,3.66,21.49,3.5Z"/></svg>