<svg id="Layer_1" data-name="Layer 1" xmlns="http://www.w3.org/2000/svg" viewBox="0 0 120 25"><defs><style>.cls-1{fill:#fff;}</style></defs><path class="cls-1" d="M34,7.42v5.41h6.75v.83H34v5.59h-.92V6.58h8.47v.84Z"/><path class="cls-1" d="M45.08,6.78A.74.74,0,0,1,45.82,6a.74.74,0,1,1-.74.74Zm.29,3h.9v9.45h-.9Z"/><path class="cls-1" d="M59.43,14.74H51.3a4,4,0,0,0,7,2.45l.53.59a4.51,4.51,0,0,1-3.57,1.54,4.63,4.63,0,0,1-4.86-4.79,4.52,4.52,0,1,1,9,0C59.45,14.56,59.43,14.65,59.43,14.74ZM51.32,14h7.24a3.62,3.62,0,0,0-7.24,0Z"/><path class="cls-1" d="M63.61,5.82h.91V19.25h-.91Z"/><path class="cls-1" d="M78.09,5.82V19.25H77.2V17a4.18,4.18,0,0,1-3.87,2.3,4.58,4.58,0,0,1-4.67-4.79,4.57,4.57,0,0,1,4.67-4.8A4.23,4.23,0,0,1,77.18,12V5.82Zm-.91,8.71a3.8,3.8,0,1,0-7.59,0,3.8,3.8,0,1,0,7.59,0Z"/><path class="cls-1" d="M82.35,12.92a6.59,6.59,0,0,1,13.17,0,6.59,6.59,0,0,1-13.17,0Zm12.23,0a5.66,5.66,0,0,0-11.31,0,5.66,5.66,0,0,0,11.31,0Z"/><path class="cls-1" d="M109.21,14.53a4.57,4.57,0,0,1-4.67,4.79,4.23,4.23,0,0,1-3.84-2.22v5.66h-.9V9.8h.87V12a4.21,4.21,0,0,1,3.87-2.3A4.58,4.58,0,0,1,109.21,14.53Zm-.91,0a3.81,3.81,0,1,0-7.62,0,3.81,3.81,0,1,0,7.62,0Z"/><path class="cls-1" d="M112,18.11l.42-.72a5.5,5.5,0,0,0,3.4,1.14c2,0,2.78-.71,2.78-1.78,0-2.75-6.26-.72-6.26-4.43,0-1.43,1.2-2.59,3.59-2.59a5.77,5.77,0,0,1,3.24.93l-.42.72a4.87,4.87,0,0,0-2.84-.85c-1.85,0-2.66.76-2.66,1.77,0,2.84,6.26.83,6.26,4.43,0,1.54-1.32,2.59-3.73,2.59A5.92,5.92,0,0,1,112,18.11Z"/><path class="cls-1" d="M9.62,3.88H9.7l.45,0a12.41,12.41,0,0,1,2,.3V2.61a11,11,0,0,0-2.05-.33l-.83,0H9a17.38,17.38,0,0,0-8.5,2.3V20.42A18.16,18.16,0,0,1,4.68,18.8a18.63,18.63,0,0,1,3.51-.53h0l.6,0V16.62a19.5,19.5,0,0,0-4.55.61c-.55.13-1.08.29-1.58.46l-.56.19V5.5l.24-.11a14.78,14.78,0,0,1,2.91-1,15.06,15.06,0,0,1,3-.46H9.62Z"/><path class="cls-1" d="M13.63,5.56c-.37,0-.74,0-1.1,0s-.86-.08-1.28-.15l-.74-.15V20.91a12.3,12.3,0,0,0,3.12.37,16.88,16.88,0,0,0,4.12-.53A16.48,16.48,0,0,0,22.13,19V3.39A17.7,17.7,0,0,1,18,5,17.63,17.63,0,0,1,13.63,5.56Zm6.31.27.56-.19V18l-.24.12a15.91,15.91,0,0,1-2.91,1,15.63,15.63,0,0,1-3.72.48c-.37,0-.75,0-1.11-.05l-.39,0v-1.5h0V6.84l.46,0c.33,0,.67,0,1,0a19.41,19.41,0,0,0,4.73-.6C18.89,6.16,19.42,6,19.94,5.83Z"/></svg>